HIERARCHY
ROOT Hips
{
 OFFSET 0.000000 0.000000 0.000000
 CHANNELS 6 Xposition Yposition Zposition Yrotation Xrotation Zrotation
 JOINT Chest
 {
  OFFSET 0.000000 9.585900 0.002600
  CHANNELS 3 Yrotation Xrotation Zrotation
  JOINT Chest2
  {
   OFFSET 0.000000 9.601200 -0.005300
   CHANNELS 3 Yrotation Xrotation Zrotation
   JOINT Chest3
   {
    OFFSET 0.000000 9.561800 0.000000
    CHANNELS 3 Yrotation Xrotation Zrotation
    JOINT Chest4
    {
     OFFSET 0.000000 9.552100 0.000000
     CHANNELS 3 Yrotation Xrotation Zrotation
     JOINT Neck
     {
      OFFSET 0.000000 14.453000 0.000000
      CHANNELS 3 Yrotation Xrotation Zrotation
      JOINT Head
      {
       OFFSET 0.000000 8.936500 -0.011300
       CHANNELS 3 Yrotation Xrotation Zrotation
       End Site
       {
        OFFSET 0.000000 17.073600 -0.006000
       }
      }
     }
     JOINT RightCollar
     {
      OFFSET -2.921100 9.558500 0.000000
      CHANNELS 3 Yrotation Xrotation Zrotation
      JOINT RightShoulder
      {
       OFFSET -13.519700 0.000000 0.000000
       CHANNELS 3 Yrotation Xrotation Zrotation
       JOINT RightElbow
       {
        OFFSET 0.000000 -29.696600 0.000000
        CHANNELS 3 Yrotation Xrotation Zrotation
        JOINT RightWrist
        {
         OFFSET 0.000000 -24.004700 0.000000
         CHANNELS 3 Yrotation Xrotation Zrotation
         End Site
         {
          OFFSET 0.000000 -17.728500 0.000000
         }
        }
       }
      }
     }
     JOINT LeftCollar
     {
      OFFSET 2.921100 9.558500 0.000000
      CHANNELS 3 Yrotation Xrotation Zrotation
      JOINT LeftShoulder
      {
       OFFSET 13.519700 0.000000 0.000000
       CHANNELS 3 Yrotation Xrotation Zrotation
       JOINT LeftElbow
       {
        OFFSET 0.000000 -29.696600 0.000000
        CHANNELS 3 Yrotation Xrotation Zrotation
        JOINT LeftWrist
        {
         OFFSET 0.000000 -24.004700 0.000000
         CHANNELS 3 Yrotation Xrotation Zrotation
         End Site
         {
          OFFSET 0.000000 -17.728500 0.000000
         }
        }
       }
      }
     }
    }
   }
  }
 }
 JOINT RightHip
 {
  OFFSET -7.771700 -0.012900 -0.001300
  CHANNELS 3 Yrotation Xrotation Zrotation
  JOINT RightKnee
  {
   OFFSET 0.000000 -40.869800 0.001200
   CHANNELS 3 Yrotation Xrotation Zrotation
   JOINT RightAnkle
   {
    OFFSET 0.000000 -39.717900 0.002100
    CHANNELS 3 Yrotation Xrotation Zrotation
    JOINT RightToe
    {
     OFFSET 0.000000 -4.965400 11.033500
     CHANNELS 3 Yrotation Xrotation Zrotation
     End Site
     {
      OFFSET 0.000000 -1.423100 5.872300
     }
    }
   }
  }
 }
 JOINT LeftHip
 {
  OFFSET 7.771700 -0.012900 -0.001300
  CHANNELS 3 Yrotation Xrotation Zrotation
  JOINT LeftKnee
  {
   OFFSET 0.000000 -40.869800 0.001200
   CHANNELS 3 Yrotation Xrotation Zrotation
   JOINT LeftAnkle
   {
    OFFSET 0.000000 -39.717900 0.002100
    CHANNELS 3 Yrotation Xrotation Zrotation
    JOINT LeftToe
    {
     OFFSET 0.000000 -4.965400 11.033500
     CHANNELS 3 Yrotation Xrotation Zrotation
     End Site
     {
      OFFSET 0.000000 -1.423100 5.872300
     }
    }
   }
  }
 }
}
MOTION
Frames: 16
Frame Time: 0.008333
0.000000 85.388000 0.000000 0.000000 -5.767877 0.000000 0.000000 11.653817 0.000000 0.000000 -5.885947 0.000000 0.000000 -0.000000 0.000000 0.000000 -0.000000 0.000000 0.000000 12.528835 0.000000 0.000000 0.711642 0.000000 0.000000 -0.000000 0.000000 0.000000 0.000000 -90.000000 0.000000 -2.309062 0.000000 0.000000 2.309062 0.000000 0.000000 -0.000000 0.000000 0.000000 -0.000000 90.000000 0.000000 -2.309062 0.000000 0.000000 2.309062 0.000000 0.000000 8.520406 0.000000 0.000000 1.905762 0.000000 -0.000000 -4.658285 0.000000 0.000000 -0.000000 0.000000 0.000000 8.520406 0.000000 0.000000 1.905762 0.000000 -0.000000 -4.658285 0.000000 0.000000 -0.000000 0.000000
-10.480707 57.598092 43.331668 -159.684149 -44.901404 -5.707807 -6.459547 27.184045 0.717578 -1.104670 4.864753 0.125814 -1.716923 7.683661 0.158056 -5.065495 22.114031 -0.194523 -4.642437 10.779131 4.213763 -10.778346 -15.176751 10.140424 1.793631 0.009181 -1.418292 4.789607 -17.346930 -15.363511 158.924441 -78.695367 -138.607730 16.154745 -12.033128 -51.896373 -8.270238 -2.423037 -1.971630 -2.518724 -16.748220 -2.287006 -124.707806 -48.410226 101.469010 -10.849109 -15.849764 17.648983 1.346496 -23.987406 -15.740806 -8.375098 68.987024 -9.135178 3.410235 6.590535 10.671311 -0.569442 0.428138 -0.337030 -16.068252 -35.745985 -11.542822 29.896615 62.866405 24.157780 -10.242483 40.193229 6.124026 1.118388 -23.174756 -7.810274
-10.465999 57.594292 43.328659 -159.728451 -44.897246 -5.765254 -6.484818 27.149760 0.763041 -1.091259 4.864482 0.132146 -1.677027 7.698156 0.158554 -5.112597 22.075088 -0.153242 -4.815186 10.847511 4.348816 -11.156860 -15.008300 10.462719 1.635656 0.093173 -1.409817 4.434210 -17.349665 -15.147429 162.624845 -79.569197 -142.667739 15.599256 -11.563751 -51.723259 -8.552477 -2.545871 -2.061795 -3.232209 -17.437481 -1.654811 -125.000621 -47.935096 101.507850 -11.059369 -15.433476 15.949395 1.325866 -24.009365 -15.669774 -8.385189 68.988994 -9.079175 3.397090 6.622649 10.596116 -0.532680 0.441647 -0.314972 -16.119079 -35.751953 -11.406279 29.896273 62.909569 24.149983 -10.271856 40.213898 6.085065 1.130484 -23.206615 -7.799111
-10.451974 57.587847 43.328640 -159.715918 -44.871590 -5.853869 -6.554558 27.100765 0.804384 -1.096076 4.857471 0.137251 -1.703942 7.675541 0.169834 -5.118474 22.071179 -0.139725 -4.968099 10.916894 4.463792 -11.487948 -14.842370 10.737098 1.497058 0.180765 -1.407908 4.119154 -17.371611 -14.965493 166.428859 -80.334910 -146.816049 15.065002 -11.098542 -51.558396 -8.812094 -2.663923 -2.159567 -3.936301 -18.114871 -0.998243 -125.295692 -47.579866 101.529409 -11.285277 -14.970649 14.052252 1.257376 -24.056144 -15.590292 -8.356390 69.000140 -9.042594 3.411238 6.667530 10.598975 -0.536612 0.427707 -0.325856 -16.221620 -35.800076 -11.257454 29.886261 62.982983 24.112416 -10.275322 40.244083 6.061558 1.147703 -23.249349 -7.791682
-10.444648 57.583933 43.328075 -159.733217 -44.875702 -5.887636 -6.638038 27.072037 0.799987 -1.103975 4.851244 0.142305 -1.740136 7.652925 0.182211 -5.134508 22.067826 -0.130738 -5.100457 10.985945 4.558781 -11.770637 -14.681996 10.963779 1.378452 0.275222 -1.421119 3.841570 -17.415392 -14.815676 170.275333 -80.997714 -150.992364 14.565529 -10.646159 -51.404817 -9.043915 -2.782483 -2.269385 -4.616704 -18.781487 -0.322516 -125.598057 -47.318968 101.526741 -11.539932 -14.461623 11.998444 1.224070 -24.068551 -15.540585 -8.314808 69.006533 -9.011131 3.425838 6.680596 10.595786 -0.553658 0.439686 -0.316981 -16.247522 -35.805506 -11.186606 29.872748 63.023851 24.098345 -10.294500 40.246809 6.035622 1.164325 -23.262261 -7.788842
-10.433638 57.581103 43.326685 -159.792211 -44.890047 -5.919610 -6.693025 27.050116 0.822599 -1.114393 4.846355 0.148001 -1.756467 7.645536 0.190830 -5.181058 22.052485 -0.110976 -5.215941 11.054120 4.635323 -12.012947 -14.527877 11.147738 1.274702 0.375895 -1.451986 3.587436 -17.481250 -14.694475 174.074222 -81.570587 -155.101701 14.084108 -10.200536 -51.243872 -9.253406 -2.906916 -2.390108 -5.267082 -19.438947 0.366301 -125.896466 -47.108132 101.478208 -11.833922 -13.913044 9.854094 1.213067 -24.073962 -15.467061 -8.292750 69.005952 -8.974922 3.434277 6.708118 10.577844 -0.554180 0.446428 -0.313416 -16.255364 -35.789705 -11.094991 29.838180 63.062187 24.085646 -10.324915 40.247599 5.976041 1.187483 -23.274092 -7.777081
-10.424322 57.581059 43.324177 -159.876973 -44.929974 -5.933616 -6.740604 27.047760 0.839285 -1.127085 4.843036 0.154480 -1.776398 7.640340 0.200557 -5.236606 22.038480 -0.089155 -5.316640 11.121554 4.696357 -12.220203 -14.379212 11.295633 1.187437 0.479008 -1.496650 3.348299 -17.562880 -14.597683 177.698833 -82.069676 -159.017116 13.626097 -9.768829 -51.057680 -9.438539 -3.037193 -2.515519 -5.900257 -20.088919 1.063721 -126.165618 -46.873524 101.349234 -12.154032 -13.367150 7.731853 1.230156 -24.050102 -15.393076 -8.320203 68.995165 -8.977635 3.446918 6.737788 10.555931 -0.550281 0.454389 -0.308029 -16.235485 -35.743153 -11.016312 29.822177 63.080324 24.083237 -10.336216 40.283819 5.958111 1.198399 -23.314173 -7.780802
-10.415677 57.579073 43.325368 -159.926006 -44.950128 -5.971007 -6.825714 27.026480 0.853004 -1.141957 4.841050 0.161521 -1.799676 7.637045 0.211032 -5.300886 22.025459 -0.066220 -5.403362 11.186332 4.744076 -12.395173 -14.239360 11.412293 1.120241 0.581253 -1.550454 3.113806 -17.653044 -14.520966 -178.954709 -82.496871 -162.627734 13.226922 -9.351289 -50.846594 -9.598889 -3.172378 -2.638611 -6.542444 -20.727921 1.768657 -126.376818 -46.549434 101.110302 -12.462722 -12.871080 5.776266 1.231311 -24.041708 -15.325229 -8.347397 68.986341 -8.976127 3.459153 6.769584 10.538169 -0.548226 0.457396 -0.302763 -16.241344 -35.717251 -10.932031 29.809409 63.102538 24.085133 -10.358931 40.295329 5.922430 1.208666 -23.332274 -7.770988
-10.418661 57.578527 43.329240 -159.988174 -44.988571 -5.939005 -6.938981 27.016027 0.798196 -1.158664 4.839953 0.169063 -1.825671 7.635035 0.222281 -5.372230 22.012742 -0.042005 -5.478826 11.244761 4.777893 -12.543542 -14.115011 11.498485 1.069342 0.678424 -1.610769 2.876965 -17.742907 -14.465452 -176.006804 -82.851021 -165.805322 12.900515 -8.931688 -50.624687 -9.742242 -3.312386 -2.757575 -7.218931 -21.348827 2.480802 -126.514653 -46.162390 100.765922 -12.704179 -12.437430 4.090933 1.285729 -24.010487 -15.342537 -8.353874 68.976459 -8.933480 3.434953 6.813134 10.493312 -0.509960 0.455320 -0.279261 -16.187958 -35.687565 -10.930334 29.804243 63.113419 24.095752 -10.446114 40.296821 5.844243 1.259336 -23.332173 -7.754686
-10.413344 57.577990 43.333273 -160.037665 -45.018571 -5.974079 -7.038174 27.007988 0.812335 -1.176575 4.839491 0.177131 -1.853473 7.634032 0.234381 -5.448028 22.000298 -0.016025 -5.545975 11.294442 4.797309 -12.671404 -14.010093 11.555112 1.030809 0.765797 -1.675646 2.648596 -17.823464 -14.434201 -173.671998 -83.143934 -168.343065 12.635753 -8.502723 -50.410637 -9.874005 -3.456537 -2.870418 -7.943714 -21.944668 3.194667 -126.583298 -45.832364 100.358432 -12.867957 -12.081368 2.688390 1.298943 -23.983264 -15.282733 -8.372241 68.954331 -8.914952 3.437962 6.846645 10.486369 -0.514085 0.471677 -0.274099 -16.182181 -35.652376 -10.864207 29.811278 63.122360 24.115793 -10.442412 40.335232 5.860038 1.264919 -23.371950 -7.773628
-10.401876 57.574469 43.341088 -160.046996 -45.014475 -6.075783 -7.152484 26.977188 0.874002 -1.195391 4.840091 0.185590 -1.882776 7.634499 0.247013 -5.527075 21.989014 0.011052 -5.605168 11.335645 4.804348 -12.780367 -13.923858 11.586155 1.009841 0.840706 -1.741885 2.439496 -17.889774 -14.425476 -172.140713 -83.394306 -170.066129 12.415349 -8.064560 -50.219062 -9.991643 -3.603394 -2.972781 -8.709432 -22.511883 3.899617 -126.603207 -45.676212 99.929333 -12.989182 -11.811977 1.521138 1.258667 -23.987859 -15.177560 -8.396124 68.929287 -8.915547 3.502114 6.861790 10.505902 -0.567193 0.481040 -0.292016 -16.234382 -35.643367 -10.767350 29.838300 63.130802 24.180388 -10.362049 40.358928 5.924285 1.214037 -23.405090 -7.807922
-10.404759 57.575604 43.349216 -160.115689 -45.060279 -6.063926 -7.262026 26.984304 0.848633 -1.215067 4.842399 0.194284 -1.913395 7.637423 0.259987 -5.608555 21.980107 0.038600 -5.656190 11.369722 4.800752 -12.870437 -13.853785 11.594642 1.005140 0.902082 -1.807301 2.261017 -17.941579 -14.440461 -171.419023 -83.619930 -170.983347 12.230524 -7.613469 -50.053499 -10.093486 -3.752595 -3.067248 -9.484257 -23.050721 4.592103 -126.615561 -45.744492 99.496025 -13.085127 -11.597453 0.529294 1.293783 -23.943030 -15.144595 -8.417560 68.895598 -8.912362 3.465569 6.900056 10.458948 -0.518582 0.488088 -0.262387 -16.195988 -35.598527 -10.745073 29.802017 63.136538 24.167134 -10.414695 40.372561 5.849900 1.264810 -23.413391 -7.796398
-10.394260 57.573409 43.360152 -160.120892 -45.063205 -6.175613 -7.382585 26.964713 0.914762 -1.235174 4.846478 0.203109 -1.944527 7.643012 0.273186 -5.690335 21.974067 0.066443 -5.699788 11.397331 4.787318 -12.943353 -13.798275 11.582360 1.009686 0.952076 -1.872578 2.113314 -17.983121 -14.478162 -171.363787 -83.830360 -171.234617 12.074952 -7.141903 -49.897469 -10.185382 -3.903756 -3.159298 -10.232512 -23.564359 5.273367 -126.646990 -46.034185 99.058132 -13.158344 -11.400292 -0.350425 1.229698 -23.936512 -15.035457 -8.383923 68.855808 -8.859853 3.533905 6.914991 10.475883 -0.573178 0.497127 -0.293631 -16.260945 -35.576467 -10.636155 29.802808 63.133672 24.204796 -10.363091 40.418226 5.887418 1.242580 -23.458487 -7.832314
-10.395132 57.574454 43.372140 -160.187442 -45.103716 -6.184768 -7.489432 26.971547 0.909140 -1.255058 4.851758 0.212121 -1.975282 7.650401 0.286648 -5.769974 21.970271 0.095111 -5.737334 11.418811 4.765240 -13.002222 -13.756283 11.552097 1.020916 0.994215 -1.936806 1.983323 -18.019811 -14.531809 -171.761405 -84.034386 -171.013517 11.931058 -6.656192 -49.729156 -10.276097 -4.055157 -3.250702 -10.941684 -24.048338 5.945818 -126.698452 -46.501478 98.623120 -13.211640 -11.192031 -1.179438 1.249203 -23.897702 -14.976644 -8.393563 68.813582 -8.848617 3.487801 6.966417 10.428649 -0.518902 0.500701 -0.265104 -16.236307 -35.538109 -10.604699 29.815208 63.131685 24.257171 -10.434949 40.434041 5.804883 1.287398 -23.472064 -7.827304
-10.378562 57.570179 43.387919 -160.247185 -45.087657 -6.295924 -7.553494 26.938272 1.018419 -1.274512 4.857710 0.221319 -2.005403 7.658799 0.300330 -5.846933 21.967810 0.124627 -5.769973 11.434923 4.735869 -13.049558 -13.726179 11.506821 1.035776 1.029392 -1.998836 1.871388 -18.053558 -14.599201 -172.283116 -84.242333 -170.641649 11.792821 -6.171749 -49.554760 -10.369987 -4.207994 -3.342336 -11.617323 -24.487558 6.614907 -126.762157 -47.072601 98.206752 -13.242001 -10.969099 -1.992903 1.214347 -23.914328 -14.820960 -8.429510 68.744515 -8.849555 3.558817 7.024060 10.437660 -0.563293 0.501371 -0.289556 -16.303898 -35.527591 -10.440783 29.826645 63.128684 24.303493 -10.372588 40.466478 5.850131 1.266011 -23.511012 -7.872015
-10.378002 57.570595 43.403617 -160.320404 -45.122100 -6.312593 -7.650021 26.943775 1.022450 -1.293465 4.864239 0.230599 -2.034671 7.667984 0.314109 -5.920778 21.966546 0.154803 -5.798755 11.446587 4.700672 -13.087912 -13.705849 11.449705 1.053658 1.057517 -2.060707 1.780221 -18.081540 -14.678693 -172.606354 -84.454664 -170.451345 11.661710 -5.700018 -49.379763 -10.468920 -4.362404 -3.434337 -12.261965 -24.873641 7.281912 -126.821572 -47.671912 97.806290 -13.240990 -10.749480 -2.770876 1.228829 -23.881221 -14.743032 -8.449973 68.689623 -8.854867 3.521099 7.082776 10.390683 -0.510911 0.503793 -0.258781 -16.289936 -35.492837 -10.394150 29.818742 63.125896 24.342577 -10.439150 40.480347 5.751540 1.312041 -23.516127 -7.862756
